<?xml version="1.0" encoding="utf-8"?>
<!-- Generator: Adobe Illustrator 22.1.0, SVG Export Plug-In . SVG Version: 6.00 Build 0)  -->
<svg version="1.1" id="Calque_1" xmlns="http://www.w3.org/2000/svg" xmlns:xlink="http://www.w3.org/1999/xlink" x="0px" y="0px"
	 viewBox="0 0 1280 1024" style="enable-background:new 0 0 1280 1024;" xml:space="preserve">
<style type="text/css">
	.st0{fill:none;}
	.st1{fill:#0275D8;}
	.st2{fill:#6E767C;}
	.st3{display:none;fill:#8B0000;}
</style>
<g>
	<rect x="324" y="108" class="st0" width="648" height="576"/>
	<g>
		<polygon points="396.5,431.5 396.5,144.5 683.5,144.5 683.5,287.5 539.5,287.5 539.5,431.5 		"/>
		<path d="M683,145v142H540h-1v1v143H397V145H683 M684,144H396v288h144V288h144V144L684,144z"/>
	</g>
	<g>
		<polygon class="st1" points="756,360 756,504 612,504 612,648 900,648 900,360 		"/>
	</g>
	<g>
		<rect x="576" y="324" class="st2" width="144" height="144"/>
	</g>
	<g>
		<rect x="432" y="684" class="st0" width="513" height="171"/>
	</g>
	<rect x="585" y="153" class="st0" width="4.1" height="3.6"/>
</g>
<rect x="693" y="333" class="st3" width="587" height="691"/>
</svg>
